<?xml version="1.0" standalone="no"?>
<!DOCTYPE svg PUBLIC "-//W3C//DTD SVG 20010904//EN"
 "http://www.w3.org/TR/2001/REC-SVG-20010904/DTD/svg10.dtd">
<svg version="1.0" xmlns="http://www.w3.org/2000/svg"
 width="129.000000pt" height="129.000000pt" viewBox="0 0 129.000000 129.000000"
 preserveAspectRatio="xMidYMid meet">
<metadata>
Created by potrace 1.14, written by Peter Selinger 2001-2017
</metadata>
<g transform="translate(0.000000,129.000000) scale(0.100000,-0.100000)"
fill="#000000" stroke="none">
<path d="M623 1055 c-10 -7 -20 -12 -23 -11 -3 0 -18 -9 -34 -21 -16 -13 -25
-23 -21 -23 5 0 1 -8 -8 -17 -8 -10 -18 -35 -22 -55 -7 -35 -8 -37 -42 -32
-48 6 -61 -8 -59 -61 1 -36 -2 -45 -16 -45 -29 0 -47 -11 -41 -26 3 -8 0 -14
-6 -14 -6 0 -14 14 -18 30 -6 33 -65 104 -76 93 -4 -3 -7 -2 -7 4 0 7 -67 11
-103 4 -11 -2 -68 -58 -69 -68 0 -4 -3 -14 -6 -21 -2 -7 -2 -33 1 -57 4 -41
-6 -62 -15 -33 -3 7 -14 9 -31 4 -28 -7 -28 -9 -12 -95 1 -9 6 -41 10 -71 4
-30 9 -64 11 -75 2 -11 6 -38 9 -60 4 -22 8 -49 10 -60 2 -11 4 -23 4 -27 1
-4 35 9 76 27 41 19 75 31 75 27 0 -4 4 -2 8 4 8 13 160 53 228 60 26 2 54 10
62 17 10 7 17 8 19 2 3 -11 213 -11 240 0 9 3 19 2 22 -3 3 -5 29 -12 56 -16
28 -3 77 -13 110 -21 33 -9 70 -18 82 -20 23 -5 32 -9 119 -43 l52 -21 26 102
c15 56 29 115 32 131 3 16 10 40 15 53 13 35 12 39 -16 51 -15 7 -25 8 -25 2
0 -6 -4 -10 -9 -10 -4 0 -6 22 -3 48 8 84 -41 142 -119 142 -35 0 -102 -37
-93 -51 3 -5 1 -9 -4 -9 -6 0 -13 -11 -16 -25 -4 -14 -11 -25 -17 -25 -6 0 -9
6 -6 14 4 9 -3 16 -19 20 -20 5 -24 13 -25 46 -1 22 -2 46 -3 52 -1 17 -66 22
-67 5 -1 -6 -3 -21 -4 -32 -1 -11 -3 -28 -3 -37 -1 -10 -5 -18 -10 -18 -4 0
-7 37 -7 83 0 90 -16 125 -74 166 -34 25 -113 34 -138 16z m116 -29 c28 -15
63 -58 68 -86 8 -43 7 -150 -2 -147 -5 2 -10 22 -10 45 -1 23 -4 44 -8 48 -4
4 -58 8 -122 9 l-115 1 0 -43 c0 -24 -5 -43 -11 -43 -17 0 -3 135 17 166 39
59 122 81 183 50z m-479 -173 c28 -19 42 -38 52 -71 5 -19 3 -22 -11 -17 -16
5 -151 -23 -193 -40 -15 -6 -18 -1 -18 33 0 87 100 143 170 95z m907 -31 c26
-14 54 -74 49 -104 -3 -12 -5 -29 -5 -35 -1 -17 -21 -17 -21 0 0 16 -164 71
-168 57 -2 -6 -8 -10 -14 -10 -14 0 1 41 26 69 35 39 86 48 133 23z"/>
<path d="M474 395 c-140 -21 -299 -77 -388 -138 -46 -32 -41 -34 17 -7 59 28
213 62 337 76 97 11 329 6 430 -10 14 -2 43 -7 65 -10 22 -3 51 -8 65 -11 14
-3 39 -8 57 -11 18 -3 72 -16 120 -29 65 -18 83 -20 68 -9 -21 16 -158 84
-178 88 -7 2 -19 6 -27 9 -43 16 -122 37 -180 48 -91 16 -289 18 -386 4z"/>
</g>
</svg>
